<svg id="visual" viewBox="0 0 960 540" width="960" height="540" xmlns="http://www.w3.org/2000/svg" xmlns:xlink="http://www.w3.org/1999/xlink" version="1.1"><g transform="translate(475.83812417400804 276.7254225624757)"><path d="M119.5 -163C160.2 -134.9 202.3 -107.1 209.7 -71.2C217.2 -35.3 189.9 8.8 175.6 58.4C161.3 108 160 163.2 132.9 186.9C105.8 210.6 52.9 202.8 9.4 189.9C-34.1 176.9 -68.2 158.8 -105.1 138.3C-142 117.8 -181.8 94.9 -196.2 61.3C-210.5 27.6 -199.4 -16.8 -179 -51.5C-158.6 -86.3 -128.9 -111.4 -97.5 -142.6C-66.1 -173.7 -33.1 -210.8 3.2 -215.2C39.4 -219.5 78.8 -191.1 119.5 -163" fill="#06D001"></path></g></svg>