<svg id="visual" viewBox="0 0 900 900" width="900" height="900" xmlns="http://www.w3.org/2000/svg" xmlns:xlink="http://www.w3.org/1999/xlink" version="1.1"><g transform="translate(429.25116812404286 451.4747610234749)"><path d="M221.8 -349.9C281.4 -306.8 319.4 -235 344.7 -162.5C370 -89.9 382.5 -16.6 375.8 56.5C369.1 129.5 343.3 202.3 298.1 263.3C253 324.4 188.6 373.8 117.6 389.7C46.6 405.5 -31.1 388 -105.8 364.3C-180.6 340.6 -252.4 310.7 -293 257.5C-333.6 204.2 -343 127.4 -331.6 61.1C-320.2 -5.2 -288 -61 -260.9 -118.7C-233.8 -176.3 -211.8 -235.8 -169.2 -286.7C-126.5 -337.5 -63.3 -379.8 8.9 -393.6C81.1 -407.5 162.2 -393 221.8 -349.9" fill="#059212"></path></g></svg>