<svg xmlns="http://www.w3.org/2000/svg" xmlns:xlink="http://www.w3.org/1999/xlink" width="189" zoomAndPan="magnify" viewBox="0 0 141.75 141.750002" height="189" preserveAspectRatio="xMidYMid meet" version="1.0"><defs><clipPath id="5120632077"><path d="M 8.035156 19.503906 L 133.449219 19.503906 L 133.449219 125.988281 L 8.035156 125.988281 Z M 8.035156 19.503906 " clip-rule="nonzero"/></clipPath><clipPath id="c808a6372a"><path d="M 10 15.1875 L 133.777344 15.1875 L 133.777344 125.988281 L 10 125.988281 Z M 10 15.1875 " clip-rule="nonzero"/></clipPath><clipPath id="87d107c58d"><path d="M 23 19 L 132 19 L 132 125.988281 L 23 125.988281 Z M 23 19 " clip-rule="nonzero"/></clipPath><clipPath id="2cf3a5b896"><path d="M 10 19.25 L 132.699219 19.25 L 132.699219 125.988281 L 10 125.988281 Z M 10 19.25 " clip-rule="nonzero"/></clipPath></defs><g clip-path="url(#5120632077)"><path fill="#025d00" d="M 118.679688 57.464844 C 117.710938 56.984375 116.570312 56.984375 115.601562 57.464844 L 112.191406 59.160156 C 111.414062 59.472656 110.867188 60.230469 110.867188 61.117188 L 110.867188 65.664062 C 110.867188 66.535156 111.394531 67.28125 112.144531 67.601562 L 115.601562 69.320312 C 116.570312 69.800781 117.710938 69.800781 118.679688 69.316406 L 122.089844 67.621094 C 122.867188 67.308594 123.417969 66.550781 123.417969 65.664062 L 123.417969 61.117188 C 123.417969 60.246094 122.890625 59.5 122.136719 59.179688 Z M 113.554688 80.085938 C 89.617188 73.589844 103.753906 44.777344 72.632812 50.089844 C 51.074219 53.769531 55.417969 79.109375 41.453125 79.433594 C 31.988281 79.65625 27.796875 95.3125 22.941406 103.144531 C 17.957031 111.179688 8.714844 108.023438 8.035156 126.046875 L 133.136719 126.046875 C 133.136719 126.046875 137.492188 86.578125 113.554688 80.085938 Z M 106.347656 26.800781 C 106.101562 26.222656 106.335938 25.550781 106.894531 25.253906 C 107.324219 25.027344 107.855469 25.152344 108.140625 25.546875 L 110.183594 28.414062 L 109.734375 22.320312 C 109.691406 21.761719 110.097656 21.269531 110.652344 21.207031 C 111.144531 21.148438 111.609375 21.441406 111.765625 21.910156 L 113.453125 26.992188 L 113.347656 20.96875 C 113.335938 20.332031 113.808594 19.789062 114.445312 19.714844 C 115.078125 19.640625 115.664062 20.058594 115.800781 20.679688 L 117.09375 26.5625 L 116.875 21.339844 C 116.859375 20.9375 117.183594 20.601562 117.585938 20.605469 L 117.601562 20.605469 C 117.964844 20.605469 118.265625 20.867188 118.320312 21.21875 C 118.59375 23.050781 119.40625 28.34375 119.40625 28.34375 L 119.832031 30.285156 L 121.527344 27.390625 C 121.851562 26.839844 122.613281 26.746094 123.058594 27.203125 C 123.304688 27.449219 123.394531 27.8125 123.300781 28.148438 L 122.460938 31.148438 L 120.375 35.617188 L 120.328125 35.714844 C 120.066406 36.273438 120.003906 36.910156 120.160156 37.511719 L 123.679688 51.335938 L 113.941406 53.476562 L 111.640625 37.054688 C 111.566406 36.542969 111.4375 36.039062 111.253906 35.554688 L 110.636719 33.945312 C 110.269531 32.984375 109.800781 32.066406 109.234375 31.203125 L 106.347656 26.800781 " fill-opacity="1" fill-rule="nonzero"/></g><path fill="#e6ae43" d="M 61.710938 50.457031 C 61.710938 50.457031 58.894531 49.859375 58.460938 49.859375 C 58.03125 49.859375 55.503906 50.816406 55.503906 51.828125 C 55.503906 52.839844 55.9375 53.992188 56.226562 54.28125 C 56.515625 54.570312 57.667969 54.5 58.101562 54.789062 C 58.535156 55.078125 59.625 55.074219 59.625 55.074219 L 60.4375 52.984375 C 60.4375 52.984375 61.566406 53.992188 62.722656 53.992188 C 63.875 53.992188 64.453125 53.054688 64.453125 53.054688 L 66.078125 53.214844 L 65.367188 49.972656 Z M 45.316406 39.917969 L 43.304688 41.535156 C 43.210938 41.613281 43.203125 41.753906 43.289062 41.84375 C 43.566406 42.117188 43.984375 42.195312 44.339844 42.035156 L 45.722656 41.410156 L 45.792969 41.503906 L 44.378906 43.039062 C 44.265625 43.164062 44.308594 43.359375 44.460938 43.429688 C 44.625 43.503906 44.824219 43.578125 44.984375 43.59375 C 45.515625 43.636719 46.191406 43.097656 46.640625 42.667969 L 46.78125 42.859375 L 45.65625 43.558594 C 45.492188 43.660156 45.457031 43.824219 45.582031 43.878906 C 45.714844 43.941406 45.882812 44.003906 46.039062 44.015625 C 46.300781 44.03125 46.660156 43.925781 47.035156 43.769531 C 46.976562 44.332031 46.761719 45.183594 46.019531 45.628906 C 44.859375 46.335938 44.613281 46.875 44.914062 47.199219 C 45.210938 47.523438 46.347656 46.523438 47.78125 46.660156 C 49.214844 46.792969 50.390625 46.171875 50.390625 46.171875 L 50.390625 42.902344 L 48.511719 41.054688 Z M 87.835938 26.589844 C 87.449219 28.269531 84.839844 28.386719 84.292969 28.394531 L 83.957031 28.394531 L 83.824219 29.910156 L 78.128906 29.910156 L 78.742188 24.546875 C 77.757812 24.140625 77.164062 22.722656 78.054688 21.972656 C 78.441406 21.644531 78.78125 21.605469 79.066406 21.691406 L 79.320312 19.484375 C 80.617188 15.191406 85.347656 16.738281 86.609375 18.109375 C 87.101562 18.648438 88.269531 24.714844 87.835938 26.589844 " fill-opacity="1" fill-rule="nonzero"/><g clip-path="url(#c808a6372a)"><path fill="#06d001" d="M 88.5625 18.605469 L 87.4375 18.433594 L 86.6875 15.945312 C 86.597656 15.644531 86.324219 15.441406 86.007812 15.441406 L 80.636719 15.441406 C 80.292969 15.441406 79.996094 15.6875 79.9375 16.023438 L 79.320312 19.484375 L 89.316406 19.484375 C 89.316406 19.046875 88.996094 18.675781 88.5625 18.605469 Z M 34.019531 19.484375 L 42.660156 19.484375 L 41.933594 17.078125 L 34.683594 17.078125 Z M 50.65625 116.230469 L 38.472656 116.230469 L 38.472656 116.292969 L 34.933594 125.46875 L 32.261719 125.46875 L 32.527344 116.230469 L 20.425781 116.230469 L 20.425781 116.292969 L 16.890625 125.46875 L 14.21875 125.46875 L 14.496094 115.859375 L 14.203125 111.222656 L 13.4375 111.222656 C 13.675781 111.011719 13.917969 110.816406 14.164062 110.621094 L 10.324219 49.859375 L 12.539062 49.859375 C 12.164062 49.859375 11.820312 49.652344 11.648438 49.320312 L 10.457031 47.035156 C 10.078125 46.300781 10.140625 45.417969 10.617188 44.742188 L 26.292969 22.710938 C 26.5625 22.332031 26.925781 22.019531 27.34375 21.8125 L 31.386719 19.789062 C 31.785156 19.589844 32.222656 19.484375 32.667969 19.484375 L 32.722656 19.484375 L 33.460938 16.78125 C 33.605469 16.253906 34.089844 15.886719 34.636719 15.886719 L 42.097656 15.886719 C 42.617188 15.886719 43.078125 16.214844 43.25 16.703125 L 44.214844 19.484375 L 48.386719 19.484375 C 49.546875 19.484375 50.597656 20.191406 51.035156 21.269531 L 51.894531 23.375 C 52.222656 24.1875 52.164062 25.109375 51.726562 25.875 L 40.308594 45.542969 C 39.335938 47.214844 37.757812 48.449219 35.902344 48.992188 L 32.929688 49.859375 L 54.855469 49.859375 L 51.207031 107.527344 L 132.652344 107.527344 C 132.835938 108.785156 132.980469 110.019531 133.09375 111.222656 L 50.972656 111.222656 Z M 50.390625 42.902344 L 64.035156 42.035156 L 72.007812 31.953125 C 72.140625 31.757812 72.285156 31.574219 72.445312 31.402344 L 72.453125 31.390625 C 73.304688 30.476562 74.519531 29.910156 75.855469 29.910156 L 87.296875 29.910156 C 89.425781 29.910156 91.285156 31.355469 91.8125 33.417969 L 91.824219 33.464844 C 92.550781 36.316406 92.371094 39.324219 91.316406 42.070312 L 88.464844 51.878906 C 90.09375 64.097656 90.839844 97.246094 90.96875 103.539062 C 90.980469 104.109375 90.519531 104.578125 89.949219 104.578125 L 81.214844 104.578125 C 80.667969 104.578125 80.21875 104.152344 80.195312 103.609375 L 77.246094 73.539062 L 71.449219 103.015625 C 71.230469 104.125 70.046875 104.753906 69.003906 104.3125 L 60.1875 101.792969 L 68.339844 55.894531 L 66.667969 55.894531 L 65.367188 49.972656 L 69.601562 48.785156 L 69.957031 46.773438 L 66.414062 48.746094 L 50.390625 48.746094 L 50.390625 42.902344 " fill-opacity="1" fill-rule="nonzero"/></g><g clip-path="url(#87d107c58d)"><path fill="#ffeb00" d="M 107.050781 29.703125 C 107.414062 30.664062 107.675781 31.664062 107.832031 32.683594 L 108.085938 34.386719 C 108.164062 34.898438 108.183594 35.417969 108.144531 35.933594 L 106.871094 52.464844 L 116.839844 52.464844 L 116.367188 38.210938 C 116.34375 37.589844 116.539062 36.980469 116.917969 36.488281 L 116.984375 36.402344 L 119.976562 32.484375 L 121.445312 29.734375 C 121.609375 29.429688 121.597656 29.054688 121.410156 28.761719 C 121.070312 28.21875 120.308594 28.148438 119.875 28.617188 L 117.597656 31.078125 L 117.597656 29.09375 C 117.597656 29.09375 117.941406 23.746094 118.066406 21.902344 C 118.089844 21.542969 117.851562 21.226562 117.496094 21.144531 L 117.480469 21.140625 C 117.085938 21.054688 116.699219 21.3125 116.628906 21.710938 L 115.71875 26.855469 L 115.71875 20.832031 C 115.71875 20.195312 115.238281 19.664062 114.601562 19.597656 C 113.96875 19.535156 113.386719 19.964844 113.261719 20.589844 L 112.074219 26.496094 L 111.515625 21.171875 C 111.464844 20.679688 111.070312 20.289062 110.578125 20.242188 C 110.023438 20.1875 109.523438 20.578125 109.445312 21.132812 L 108.574219 27.179688 L 107.195312 23.941406 C 107.003906 23.496094 106.507812 23.257812 106.039062 23.390625 C 105.433594 23.558594 105.058594 24.167969 105.175781 24.785156 Z M 113.398438 96.203125 C 113.261719 96.015625 113.113281 95.847656 112.957031 95.6875 C 113.394531 94.148438 114.011719 92.472656 115.339844 90.316406 C 117.394531 86.984375 117.621094 87.671875 118.863281 85.652344 C 120.105469 83.632812 115.0625 81.570312 110.382812 81.332031 C 106.203125 81.125 106.351562 81.621094 103.753906 82.488281 C 101.15625 83.355469 101.382812 86.242188 103.753906 88.117188 C 105.378906 89.40625 107.058594 93.816406 107.953125 96.457031 C 107.90625 96.535156 107.859375 96.617188 107.816406 96.699219 C 106.386719 99.382812 103.480469 104.195312 99.523438 107.472656 C 93.765625 112.238281 88.292969 121.222656 94.445312 126.046875 L 129.6875 126.046875 C 129.6875 126.046875 131.644531 125.46875 131.636719 122.199219 C 131.613281 115.382812 117.101562 101.382812 113.398438 96.203125 Z M 77.617188 28.152344 L 76.507812 29.851562 L 79.550781 31.078125 L 80 29.910156 L 81.414062 29.910156 L 80.753906 28.304688 Z M 83.957031 28.394531 L 83.824219 29.910156 L 84.832031 29.910156 L 86.4375 30.804688 L 85.335938 28.394531 Z M 42.988281 71.832031 C 42.984375 71.011719 42.984375 70.195312 42.988281 69.375 C 42.988281 69.285156 42.957031 69.261719 42.871094 69.261719 C 42.40625 69.265625 41.9375 69.253906 41.472656 69.265625 C 41.121094 69.273438 40.824219 69.175781 40.558594 68.886719 C 40.394531 69.207031 40.230469 69.503906 40.09375 69.8125 C 40.023438 69.960938 39.984375 70.128906 39.964844 70.289062 C 39.90625 70.726562 40.109375 71.070312 40.40625 71.359375 C 40.777344 71.71875 41.242188 71.871094 41.738281 71.910156 C 42.117188 71.941406 42.5 71.929688 42.878906 71.941406 C 42.964844 71.945312 42.988281 71.917969 42.988281 71.832031 Z M 40.632812 62.703125 C 41.347656 63.109375 42.058594 63.519531 42.769531 63.929688 C 42.832031 63.96875 42.859375 63.957031 42.894531 63.894531 C 43.148438 63.453125 43.40625 63.007812 43.664062 62.566406 C 43.777344 62.371094 43.9375 62.226562 44.144531 62.132812 C 44.214844 62.097656 44.292969 62.078125 44.371094 62.046875 C 44.203125 61.734375 44.039062 61.421875 43.816406 61.148438 C 43.382812 60.628906 42.929688 60.5 42.261719 60.710938 C 41.867188 60.839844 41.5625 61.101562 41.300781 61.414062 C 41.011719 61.753906 40.808594 62.152344 40.585938 62.535156 C 40.539062 62.617188 40.554688 62.65625 40.632812 62.703125 Z M 47.414062 66.582031 C 47.671875 67.023438 47.921875 67.464844 48.175781 67.90625 C 48.210938 67.96875 48.242188 68.03125 48.269531 68.097656 C 48.355469 68.320312 48.335938 68.546875 48.269531 68.785156 C 48.671875 68.785156 49.0625 68.800781 49.449219 68.71875 C 49.945312 68.613281 50.273438 68.328125 50.429688 67.84375 C 50.582031 67.355469 50.527344 66.886719 50.355469 66.417969 C 50.203125 66 49.949219 65.632812 49.742188 65.242188 C 49.703125 65.167969 49.667969 65.160156 49.597656 65.199219 C 48.886719 65.613281 48.171875 66.023438 47.457031 66.433594 C 47.382812 66.476562 47.375 66.511719 47.414062 66.582031 Z M 43.703125 60.394531 C 44.042969 60.578125 44.277344 60.867188 44.464844 61.195312 C 44.703125 61.613281 44.933594 62.035156 45.171875 62.453125 C 45.363281 62.796875 45.558594 63.136719 45.753906 63.476562 C 45.792969 63.542969 45.792969 63.582031 45.714844 63.628906 C 45.441406 63.777344 45.175781 63.9375 44.90625 64.097656 C 44.875 64.117188 44.84375 64.136719 44.792969 64.167969 C 45.933594 64.472656 47.058594 64.769531 48.183594 65.070312 C 48.492188 63.921875 48.796875 62.789062 49.105469 61.640625 C 49.0625 61.664062 49.039062 61.675781 49.011719 61.691406 C 48.742188 61.84375 48.472656 61.996094 48.207031 62.148438 C 48.09375 62.210938 48.089844 62.210938 48.023438 62.09375 C 47.953125 61.976562 47.882812 61.863281 47.820312 61.742188 C 47.472656 61.035156 46.953125 60.492188 46.25 60.132812 C 45.734375 59.871094 45.1875 59.730469 44.605469 59.730469 C 44.144531 59.730469 43.6875 59.761719 43.242188 59.902344 C 42.980469 59.984375 42.730469 60.089844 42.5 60.246094 C 42.53125 60.238281 42.5625 60.234375 42.589844 60.230469 C 42.980469 60.15625 43.351562 60.203125 43.703125 60.394531 Z M 39.464844 70.222656 C 39.480469 69.863281 39.621094 69.539062 39.796875 69.234375 C 40.195312 68.550781 40.589844 67.867188 40.988281 67.183594 C 41.039062 67.101562 41.089844 67.015625 41.144531 66.925781 C 41.484375 67.125 41.8125 67.316406 42.136719 67.507812 C 42.144531 67.5 42.148438 67.496094 42.15625 67.488281 C 41.855469 66.351562 41.550781 65.210938 41.246094 64.0625 C 40.105469 64.367188 38.980469 64.671875 37.824219 64.980469 C 37.871094 65.007812 37.898438 65.023438 37.925781 65.039062 C 38.207031 65.203125 38.484375 65.367188 38.765625 65.527344 C 38.824219 65.5625 38.839844 65.585938 38.800781 65.648438 C 38.675781 65.859375 38.550781 66.074219 38.425781 66.285156 C 38.164062 66.738281 38.019531 67.230469 37.976562 67.75 C 37.917969 68.488281 38.09375 69.179688 38.421875 69.832031 C 38.746094 70.472656 39.207031 70.996094 39.8125 71.390625 C 39.839844 71.40625 39.867188 71.421875 39.894531 71.4375 C 39.59375 71.082031 39.441406 70.679688 39.464844 70.222656 Z M 50.03125 69.039062 C 49.714844 69.226562 49.359375 69.277344 48.996094 69.277344 C 48.117188 69.28125 47.238281 69.277344 46.355469 69.28125 C 46.269531 69.28125 46.238281 69.257812 46.238281 69.167969 C 46.242188 68.84375 46.242188 68.523438 46.238281 68.203125 C 46.238281 68.175781 46.238281 68.148438 46.234375 68.136719 C 45.40625 68.957031 44.574219 69.78125 43.734375 70.613281 C 44.570312 71.453125 45.398438 72.292969 46.230469 73.128906 C 46.238281 73.128906 46.246094 73.125 46.253906 73.121094 C 46.253906 73.089844 46.253906 73.0625 46.253906 73.03125 C 46.253906 72.722656 46.253906 72.410156 46.253906 72.097656 C 46.253906 71.957031 46.253906 71.960938 46.390625 71.957031 C 46.765625 71.945312 47.148438 71.964844 47.519531 71.914062 C 48.535156 71.773438 49.347656 71.261719 49.960938 70.449219 C 50.324219 69.964844 50.585938 69.421875 50.707031 68.824219 C 50.757812 68.585938 50.773438 68.339844 50.804688 68.097656 C 50.796875 68.097656 50.789062 68.097656 50.78125 68.097656 C 50.628906 68.488281 50.402344 68.820312 50.03125 69.039062 Z M 61.109375 52.039062 C 60.601562 52.039062 60.1875 52.503906 60.1875 53.070312 C 60.1875 53.207031 60.210938 53.332031 60.253906 53.453125 L 60.003906 54.101562 L 61.109375 54.101562 C 61.617188 54.101562 62.027344 53.640625 62.027344 53.070312 C 62.027344 52.503906 61.617188 52.039062 61.109375 52.039062 Z M 47.527344 120.003906 C 47.527344 118.429688 46.695312 117.152344 45.671875 117.152344 C 44.652344 117.152344 43.820312 118.429688 43.820312 120.003906 C 43.820312 121.578125 44.652344 122.855469 45.671875 122.855469 C 46.695312 122.855469 47.527344 121.578125 47.527344 120.003906 Z M 48.234375 116.230469 C 48.847656 117.210938 49.222656 118.539062 49.222656 120.003906 C 49.222656 123.023438 47.636719 125.46875 45.671875 125.46875 C 43.710938 125.46875 42.121094 123.023438 42.121094 120.003906 C 42.121094 118.539062 42.5 117.210938 43.113281 116.230469 Z M 28.992188 120.003906 C 28.992188 118.429688 28.164062 117.152344 27.140625 117.152344 C 26.117188 117.152344 25.285156 118.429688 25.285156 120.003906 C 25.285156 121.578125 26.117188 122.855469 27.140625 122.855469 C 28.164062 122.855469 28.992188 121.578125 28.992188 120.003906 Z M 29.703125 116.230469 C 30.3125 117.210938 30.691406 118.539062 30.691406 120.003906 C 30.691406 123.023438 29.101562 125.46875 27.140625 125.46875 C 25.179688 125.46875 23.589844 123.023438 23.589844 120.003906 C 23.589844 118.539062 23.964844 117.210938 24.578125 116.230469 Z M 99.742188 69.207031 L 94.300781 69.207031 C 94.152344 69.207031 94.03125 69.085938 94.03125 68.9375 L 94.03125 57.207031 C 93.359375 56.0625 92.613281 54.996094 91.738281 54.042969 L 91.738281 73.324219 L 102.539062 73.324219 C 101.445312 72.03125 100.539062 70.640625 99.742188 69.207031 Z M 94.570312 58.175781 L 94.570312 68.664062 L 99.445312 68.664062 C 97.570312 65.148438 96.300781 61.410156 94.570312 58.175781 Z M 55.511719 52.039062 C 55.554688 52.847656 55.839844 53.695312 56.089844 54.101562 L 54.585938 54.101562 L 54.714844 52.039062 L 55.511719 52.039062 " fill-opacity="1" fill-rule="nonzero"/></g><g clip-path="url(#2cf3a5b896)"><path fill="#0f182b" d="M 120.957031 61.597656 C 120.808594 61.515625 120.621094 61.566406 120.539062 61.714844 L 118.828125 64.769531 C 118.746094 64.917969 118.800781 65.101562 118.945312 65.1875 C 119.09375 65.269531 119.28125 65.214844 119.363281 65.066406 L 121.074219 62.015625 C 121.15625 61.867188 121.105469 61.679688 120.957031 61.597656 Z M 113.324219 61.597656 C 113.175781 61.679688 113.125 61.867188 113.207031 62.015625 L 114.917969 65.066406 C 115.003906 65.214844 115.1875 65.269531 115.335938 65.1875 C 115.484375 65.101562 115.535156 64.917969 115.453125 64.769531 L 113.742188 61.714844 C 113.660156 61.566406 113.472656 61.515625 113.324219 61.597656 Z M 123.15625 60.113281 C 123.320312 60.410156 123.417969 60.753906 123.417969 61.117188 L 123.417969 63 C 123.640625 63.152344 123.976562 63.386719 124.464844 63.738281 C 125.507812 64.496094 129.226562 69.257812 127.210938 69.472656 C 125.601562 69.648438 123.375 68.019531 122.550781 67.359375 C 122.410156 67.464844 122.257812 67.554688 122.089844 67.621094 L 121.304688 68.011719 C 122.261719 68.5625 122.871094 69.777344 125.003906 70.503906 C 127.546875 71.367188 128.847656 70.179688 128.683594 68.066406 C 128.523438 65.957031 123.15625 60.101562 123.15625 60.101562 Z M 109.28125 70.503906 C 111.410156 69.777344 112.019531 68.566406 112.972656 68.015625 L 112.144531 67.601562 C 111.996094 67.539062 111.859375 67.457031 111.730469 67.359375 C 110.90625 68.019531 108.683594 69.648438 107.070312 69.472656 C 105.054688 69.257812 108.773438 64.496094 109.820312 63.738281 C 110.304688 63.386719 110.644531 63.152344 110.867188 63 L 110.867188 61.117188 C 110.867188 60.753906 110.964844 60.410156 111.125 60.113281 L 111.125 60.101562 C 111.125 60.101562 105.761719 65.957031 105.597656 68.066406 C 105.433594 70.179688 106.734375 71.367188 109.28125 70.503906 Z M 107.070312 50.128906 L 116.753906 50.128906 C 116.753906 50.128906 116.757812 50.128906 116.761719 50.128906 L 116.773438 50.460938 L 123.09375 49.074219 C 123.238281 49.042969 123.332031 48.898438 123.300781 48.75 C 123.269531 48.605469 123.121094 48.511719 122.976562 48.546875 L 117.023438 49.851562 C 117.019531 49.707031 116.898438 49.589844 116.753906 49.589844 L 107.070312 49.589844 C 106.921875 49.589844 106.800781 49.710938 106.800781 49.859375 C 106.800781 50.007812 106.921875 50.128906 107.070312 50.128906 Z M 80.015625 102.066406 L 90.96875 102.066406 C 91.121094 102.066406 91.242188 101.945312 91.242188 101.792969 C 91.242188 101.644531 91.121094 101.523438 90.96875 101.523438 L 80.015625 101.523438 C 79.867188 101.523438 79.746094 101.644531 79.746094 101.792969 C 79.746094 101.945312 79.867188 102.066406 80.015625 102.066406 Z M 108.4375 104.421875 C 108.4375 104.421875 108.4375 104.421875 108.433594 104.421875 C 108.289062 104.421875 108.167969 104.539062 108.164062 104.6875 C 108.136719 107.179688 107.089844 109.527344 106.066406 111.496094 C 105.800781 112.011719 105.523438 112.523438 105.246094 113.035156 C 104.367188 114.65625 103.460938 116.332031 102.878906 118.121094 C 101.992188 120.855469 102.074219 123.457031 103.117188 125.449219 C 103.167969 125.539062 103.261719 125.59375 103.359375 125.59375 C 103.402344 125.59375 103.445312 125.582031 103.484375 125.5625 C 103.617188 125.492188 103.667969 125.328125 103.597656 125.195312 C 102.28125 122.6875 102.90625 119.789062 103.394531 118.285156 C 103.960938 116.546875 104.855469 114.894531 105.722656 113.296875 C 106 112.777344 106.277344 112.265625 106.550781 111.746094 C 107.597656 109.722656 108.675781 107.300781 108.707031 104.695312 C 108.707031 104.546875 108.589844 104.421875 108.4375 104.421875 Z M 83.726562 55.621094 L 76.207031 55.621094 C 76.203125 55.621094 76.199219 55.621094 76.195312 55.621094 L 66.667969 55.621094 C 66.519531 55.621094 66.398438 55.742188 66.398438 55.894531 C 66.398438 56.042969 66.519531 56.164062 66.667969 56.164062 L 75.871094 56.164062 L 74.554688 62.71875 L 67.078125 62.71875 C 66.929688 62.71875 66.808594 62.839844 66.808594 62.988281 C 66.808594 63.136719 66.929688 63.257812 67.078125 63.257812 L 74.769531 63.257812 C 74.773438 63.257812 74.773438 63.257812 74.777344 63.257812 C 74.777344 63.257812 74.78125 63.257812 74.78125 63.257812 L 89.53125 63.257812 C 89.679688 63.257812 89.800781 63.136719 89.800781 62.988281 C 89.800781 62.839844 89.679688 62.71875 89.53125 62.71875 L 75.105469 62.71875 L 76.421875 56.164062 L 83.726562 56.164062 C 85.949219 56.164062 87.933594 54.671875 88.550781 52.542969 C 88.59375 52.398438 88.511719 52.246094 88.367188 52.207031 C 88.222656 52.164062 88.074219 52.246094 88.03125 52.390625 C 87.480469 54.292969 85.707031 55.621094 83.726562 55.621094 Z M 96.265625 125.632812 C 95.625 125.40625 95.082031 124.816406 94.78125 124.015625 C 94.5 123.265625 94.441406 122.4375 94.386719 121.632812 C 94.375 121.484375 94.242188 121.375 94.097656 121.382812 C 93.945312 121.394531 93.835938 121.523438 93.84375 121.671875 C 93.902344 122.511719 93.964844 123.382812 94.273438 124.207031 C 94.632812 125.15625 95.292969 125.863281 96.082031 126.144531 C 96.113281 126.152344 96.144531 126.160156 96.171875 126.160156 C 96.285156 126.160156 96.390625 126.089844 96.429688 125.976562 C 96.480469 125.835938 96.40625 125.683594 96.265625 125.632812 Z M 65.296875 49.714844 C 65.152344 49.753906 65.066406 49.902344 65.109375 50.046875 C 65.140625 50.167969 65.25 50.246094 65.367188 50.246094 C 65.394531 50.246094 65.417969 50.242188 65.441406 50.234375 L 78 46.703125 C 78.015625 46.707031 78.027344 46.710938 78.042969 46.714844 C 78.144531 46.734375 78.246094 46.695312 78.308594 46.617188 L 80.929688 45.878906 C 80.976562 45.90625 81.035156 45.921875 81.09375 45.914062 C 81.605469 45.863281 82.183594 45.800781 82.667969 45.996094 C 83.058594 46.15625 83.414062 46.492188 83.753906 47.027344 C 83.835938 47.152344 84.003906 47.1875 84.128906 47.109375 C 84.253906 47.027344 84.292969 46.859375 84.210938 46.734375 C 83.804688 46.101562 83.367188 45.699219 82.871094 45.496094 C 82.402344 45.304688 81.886719 45.304688 81.425781 45.339844 L 86.148438 31.476562 C 86.195312 31.335938 86.121094 31.183594 85.980469 31.132812 C 85.835938 31.085938 85.683594 31.160156 85.636719 31.304688 L 80.855469 45.335938 L 78.457031 46.011719 L 81.273438 31.996094 C 81.300781 31.851562 81.207031 31.707031 81.058594 31.679688 C 80.910156 31.652344 80.769531 31.746094 80.742188 31.890625 L 77.875 46.175781 L 69.941406 48.40625 L 72.121094 36.128906 C 72.148438 35.984375 72.050781 35.84375 71.902344 35.816406 C 71.753906 35.789062 71.617188 35.890625 71.589844 36.035156 L 70.871094 40.09375 C 70.078125 38.9375 70.453125 36.910156 70.457031 36.886719 C 70.484375 36.738281 70.386719 36.597656 70.242188 36.566406 C 70.09375 36.539062 69.953125 36.636719 69.925781 36.785156 C 69.902344 36.898438 69.417969 39.515625 70.746094 40.785156 L 69.363281 48.570312 Z M 117.707031 111.105469 C 117.640625 110.972656 117.480469 110.914062 117.34375 110.976562 C 117.210938 111.042969 117.152344 111.203125 117.21875 111.339844 L 118.171875 113.351562 C 118.21875 113.449219 118.316406 113.507812 118.417969 113.507812 C 118.457031 113.507812 118.496094 113.5 118.53125 113.480469 C 118.667969 113.414062 118.726562 113.253906 118.660156 113.121094 Z M 118.492188 84.746094 C 117.765625 84.714844 117.160156 85.105469 116.574219 85.480469 C 116.476562 85.542969 116.378906 85.601562 116.28125 85.664062 C 115.585938 86.089844 114.832031 86.402344 114.039062 86.585938 C 114.105469 85.839844 114.292969 84.125 114.570312 83.273438 C 114.617188 83.128906 114.539062 82.976562 114.398438 82.929688 C 114.253906 82.882812 114.101562 82.960938 114.054688 83.105469 C 113.734375 84.089844 113.539062 86.042969 113.484375 86.691406 C 113.109375 86.742188 112.675781 86.761719 112.308594 86.589844 C 112.273438 86.574219 112.242188 86.558594 112.210938 86.539062 C 112.199219 86.53125 112.183594 86.523438 112.171875 86.519531 C 112.042969 86.441406 111.917969 86.347656 111.789062 86.246094 C 111.570312 86.082031 111.347656 85.910156 111.070312 85.804688 C 110.386719 85.539062 109.667969 85.777344 109.035156 85.984375 C 108.933594 86.019531 108.835938 86.050781 108.734375 86.082031 C 108.640625 86.113281 108.539062 86.140625 108.441406 86.164062 C 108.210938 84.367188 107.144531 82.691406 107.097656 82.617188 C 107.015625 82.492188 106.847656 82.457031 106.722656 82.535156 C 106.597656 82.617188 106.5625 82.785156 106.640625 82.910156 C 106.652344 82.925781 107.710938 84.582031 107.910156 86.28125 C 107.050781 86.429688 106.164062 86.414062 105.308594 86.242188 C 105.289062 86.234375 105.265625 86.230469 105.246094 86.230469 C 104.253906 86.019531 103.304688 85.597656 102.496094 84.984375 C 102.375 84.894531 102.207031 84.917969 102.117188 85.035156 C 102.027344 85.152344 102.050781 85.324219 102.167969 85.414062 C 103.027344 86.066406 104.027344 86.515625 105.078125 86.746094 C 105.375 87.09375 106.769531 88.839844 107.90625 91.84375 C 107.960938 91.984375 108.117188 92.054688 108.253906 92.003906 C 108.394531 91.949219 108.464844 91.792969 108.414062 91.652344 C 107.507812 89.257812 106.457031 87.660156 105.871094 86.875 C 106.882812 86.988281 107.921875 86.902344 108.898438 86.597656 C 108.996094 86.566406 109.101562 86.535156 109.203125 86.5 C 109.777344 86.308594 110.375 86.113281 110.875 86.308594 C 111.078125 86.386719 111.265625 86.527344 111.460938 86.675781 C 111.550781 86.746094 111.644531 86.820312 111.742188 86.886719 C 111.160156 89.183594 110.773438 91.585938 110.59375 94.027344 C 110.585938 94.175781 110.699219 94.304688 110.847656 94.316406 C 110.851562 94.316406 110.859375 94.316406 110.867188 94.316406 C 111.007812 94.316406 111.125 94.207031 111.136719 94.066406 C 111.308594 91.699219 111.675781 89.375 112.238281 87.144531 C 112.769531 87.335938 113.332031 87.269531 113.777344 87.191406 C 113.78125 87.1875 113.785156 87.1875 113.789062 87.1875 C 114.777344 87.007812 115.710938 86.648438 116.566406 86.125 C 116.664062 86.0625 116.765625 86 116.867188 85.933594 C 117.40625 85.589844 117.917969 85.265625 118.472656 85.285156 C 118.617188 85.289062 118.746094 85.175781 118.753906 85.027344 C 118.757812 84.878906 118.644531 84.75 118.492188 84.746094 Z M 120.3125 115.066406 C 120.230469 114.941406 120.0625 114.90625 119.9375 114.988281 C 119.8125 115.070312 119.777344 115.238281 119.859375 115.363281 C 121.046875 117.175781 121.933594 118.738281 122.390625 120.476562 C 122.917969 122.472656 122.71875 124.449219 121.839844 125.894531 C 121.765625 126.023438 121.804688 126.191406 121.933594 126.269531 C 121.976562 126.292969 122.027344 126.304688 122.074219 126.304688 C 122.164062 126.304688 122.253906 126.261719 122.304688 126.175781 C 123.257812 124.601562 123.480469 122.472656 122.914062 120.335938 C 122.410156 118.421875 121.363281 116.671875 120.3125 115.066406 Z M 63.847656 42.289062 C 63.886719 42.304688 64.738281 42.699219 64.832031 44.035156 C 64.84375 44.175781 64.960938 44.285156 65.101562 44.285156 C 65.109375 44.285156 65.117188 44.285156 65.121094 44.285156 C 65.269531 44.273438 65.382812 44.144531 65.371094 43.996094 C 65.253906 42.316406 64.109375 41.8125 64.0625 41.792969 C 63.925781 41.734375 63.769531 41.796875 63.710938 41.933594 C 63.648438 42.070312 63.714844 42.226562 63.847656 42.289062 Z M 60.703125 98.773438 L 71.707031 101.621094 C 71.730469 101.628906 71.753906 101.628906 71.777344 101.628906 C 71.894531 101.628906 72.007812 101.550781 72.039062 101.429688 C 72.074219 101.28125 71.988281 101.136719 71.84375 101.097656 L 60.839844 98.25 C 60.695312 98.210938 60.546875 98.296875 60.507812 98.445312 C 60.472656 98.589844 60.558594 98.734375 60.703125 98.773438 Z M 78.304688 74.171875 C 78.425781 74.171875 78.539062 74.089844 78.566406 73.960938 C 78.601562 73.816406 78.511719 73.671875 78.367188 73.636719 L 73.101562 72.421875 C 72.957031 72.386719 72.8125 72.480469 72.777344 72.625 C 72.742188 72.769531 72.835938 72.917969 72.980469 72.949219 L 78.242188 74.164062 C 78.261719 74.171875 78.285156 74.171875 78.304688 74.171875 Z M 89.800781 65.175781 C 89.800781 65.027344 89.679688 64.90625 89.53125 64.90625 L 67.078125 64.90625 C 66.929688 64.90625 66.808594 65.027344 66.808594 65.175781 C 66.808594 65.324219 66.929688 65.445312 67.078125 65.445312 L 89.53125 65.445312 C 89.679688 65.445312 89.800781 65.324219 89.800781 65.175781 Z M 113.566406 94.574219 C 112.949219 94.898438 111.535156 95.519531 109.535156 95.613281 C 109.363281 94.746094 109.152344 93.890625 108.898438 93.066406 C 108.851562 92.921875 108.703125 92.84375 108.558594 92.886719 C 108.414062 92.929688 108.335938 93.082031 108.378906 93.226562 C 108.617188 94.003906 108.820312 94.808594 108.984375 95.625 C 108.460938 95.625 107.898438 95.589844 107.308594 95.5 C 107.164062 95.480469 107.035156 95.585938 107.035156 95.730469 L 107.035156 96.738281 C 107.035156 96.835938 107.09375 96.921875 107.1875 96.957031 C 107.484375 97.070312 108.351562 97.191406 109.40625 97.191406 C 109.316406 98.023438 109.152344 98.851562 108.90625 99.652344 C 108.863281 99.796875 108.941406 99.945312 109.085938 99.992188 C 109.113281 100 109.136719 100.003906 109.164062 100.003906 C 109.28125 100.003906 109.386719 99.925781 109.425781 99.8125 C 109.6875 98.953125 109.859375 98.070312 109.949219 97.179688 C 110.398438 97.164062 110.871094 97.121094 111.332031 97.050781 C 111.527344 97.628906 111.796875 98.179688 112.144531 98.691406 C 112.195312 98.769531 112.28125 98.8125 112.367188 98.8125 C 112.417969 98.8125 112.472656 98.796875 112.519531 98.765625 C 112.644531 98.679688 112.675781 98.511719 112.589844 98.390625 C 112.289062 97.941406 112.046875 97.457031 111.871094 96.949219 C 112.539062 96.804688 113.175781 96.582031 113.699219 96.261719 C 113.832031 96.175781 113.910156 96.023438 113.910156 95.867188 L 113.910156 94.78125 C 113.910156 94.605469 113.722656 94.492188 113.566406 94.574219 Z M 12.433594 44.898438 L 33.480469 44.898438 C 34.289062 44.898438 35.035156 44.492188 35.476562 43.808594 L 49.46875 22.050781 C 49.550781 21.925781 49.515625 21.757812 49.390625 21.675781 C 49.265625 21.59375 49.09375 21.632812 49.015625 21.757812 L 35.019531 43.515625 C 34.683594 44.042969 34.105469 44.359375 33.480469 44.359375 L 12.433594 44.359375 C 12.285156 44.359375 12.164062 44.480469 12.164062 44.628906 C 12.164062 44.777344 12.285156 44.898438 12.433594 44.898438 Z M 51.074219 113.917969 C 51.074219 113.769531 50.953125 113.648438 50.804688 113.648438 L 32.804688 113.648438 L 34.1875 53.339844 L 54.523438 53.339844 C 54.675781 53.339844 54.796875 53.222656 54.796875 53.070312 C 54.796875 52.921875 54.675781 52.800781 54.523438 52.800781 L 10.972656 52.800781 C 10.824219 52.800781 10.703125 52.921875 10.703125 53.070312 C 10.703125 53.222656 10.824219 53.339844 10.972656 53.339844 L 33.648438 53.339844 L 32.265625 113.648438 L 14.375 113.648438 C 14.222656 113.648438 14.101562 113.769531 14.101562 113.917969 C 14.101562 114.070312 14.222656 114.191406 14.375 114.191406 L 32.25 114.191406 L 32.210938 115.960938 L 16.386719 115.960938 C 16.234375 115.960938 16.113281 116.078125 16.113281 116.230469 C 16.113281 116.378906 16.234375 116.5 16.386719 116.5 L 22.140625 116.5 C 21.625 117.449219 21.308594 118.667969 21.308594 120.003906 C 21.308594 123.023438 22.898438 125.46875 24.859375 125.46875 L 27.140625 125.46875 C 26.738281 125.46875 26.355469 125.363281 25.996094 125.171875 C 25.917969 125.132812 25.839844 125.085938 25.761719 125.035156 C 25.75 125.027344 25.738281 125.019531 25.726562 125.011719 C 25.65625 124.964844 25.585938 124.914062 25.515625 124.859375 C 25.5 124.84375 25.484375 124.832031 25.46875 124.816406 C 25.402344 124.765625 25.339844 124.707031 25.277344 124.648438 C 25.257812 124.632812 25.238281 124.613281 25.21875 124.589844 C 25.160156 124.535156 25.101562 124.476562 25.046875 124.414062 C 25.027344 124.386719 25.003906 124.363281 24.984375 124.335938 C 24.136719 123.339844 23.589844 121.773438 23.589844 120.003906 C 23.589844 118.667969 23.90625 117.449219 24.421875 116.5 L 32.199219 116.5 L 31.992188 125.460938 C 31.988281 125.613281 32.105469 125.734375 32.257812 125.738281 C 32.257812 125.738281 32.261719 125.738281 32.261719 125.738281 C 32.410156 125.738281 32.53125 125.621094 32.535156 125.472656 L 32.792969 114.191406 L 50.804688 114.191406 C 50.953125 114.191406 51.074219 114.070312 51.074219 113.917969 Z M 11.851562 50.949219 L 15.503906 50.949219 C 15.972656 50.949219 16.347656 50.585938 16.378906 50.128906 L 24.726562 50.128906 C 24.757812 50.585938 25.136719 50.949219 25.601562 50.949219 L 29.253906 50.949219 C 29.71875 50.949219 30.097656 50.585938 30.128906 50.128906 L 32.929688 50.128906 C 33.082031 50.128906 33.203125 50.007812 33.203125 49.859375 C 33.203125 49.710938 33.082031 49.589844 32.929688 49.589844 L 30.128906 49.589844 C 30.097656 49.132812 29.71875 48.769531 29.253906 48.769531 L 25.601562 48.769531 C 25.136719 48.769531 24.757812 49.132812 24.726562 49.589844 L 16.378906 49.589844 C 16.347656 49.132812 15.972656 48.769531 15.503906 48.769531 L 11.851562 48.769531 C 11.386719 48.769531 11.011719 49.132812 10.980469 49.589844 L 10.324219 49.589844 C 10.171875 49.589844 10.050781 49.710938 10.050781 49.859375 C 10.050781 50.007812 10.171875 50.128906 10.324219 50.128906 L 10.980469 50.128906 C 11.011719 50.585938 11.386719 50.949219 11.851562 50.949219 Z M 80.011719 22.871094 L 80.136719 22.082031 C 81.128906 21.570312 81.632812 19.484375 81.632812 19.484375 L 79.320312 19.484375 L 79.011719 21.648438 C 79.765625 21.964844 80.011719 22.871094 80.011719 22.871094 Z M 84.03125 24.808594 C 83.992188 24.742188 83.910156 24.71875 83.847656 24.757812 C 83.78125 24.792969 83.757812 24.878906 83.796875 24.941406 C 83.972656 25.246094 84.28125 25.464844 84.621094 25.53125 C 84.699219 25.546875 84.773438 25.550781 84.847656 25.550781 C 85.121094 25.550781 85.394531 25.460938 85.609375 25.289062 C 85.667969 25.242188 85.675781 25.15625 85.628906 25.097656 C 85.582031 25.039062 85.5 25.03125 85.441406 25.074219 C 85.226562 25.246094 84.941406 25.316406 84.675781 25.265625 C 84.40625 25.214844 84.167969 25.042969 84.03125 24.808594 Z M 85.636719 24.261719 C 85.964844 24.175781 85.542969 23.496094 85.292969 23.136719 C 85.230469 23.050781 85.09375 23.074219 85.066406 23.179688 L 84.824219 24.164062 C 84.824219 24.164062 85.183594 24.378906 85.636719 24.261719 Z M 85.890625 20.996094 C 85.925781 20.996094 85.960938 20.984375 85.988281 20.957031 C 86.230469 20.710938 86.625 20.632812 86.921875 20.777344 C 86.992188 20.808594 87.070312 20.78125 87.101562 20.710938 C 87.136719 20.644531 87.105469 20.5625 87.039062 20.53125 C 86.632812 20.339844 86.121094 20.4375 85.792969 20.765625 C 85.742188 20.820312 85.742188 20.90625 85.796875 20.957031 C 85.820312 20.984375 85.855469 20.996094 85.890625 20.996094 Z M 83.070312 21.394531 C 83.09375 21.410156 83.117188 21.417969 83.140625 21.417969 C 83.1875 21.417969 83.230469 21.394531 83.257812 21.351562 C 83.390625 21.132812 83.519531 20.945312 83.71875 20.867188 C 83.882812 20.800781 84.097656 20.804688 84.386719 20.886719 C 84.460938 20.910156 84.535156 20.867188 84.554688 20.792969 C 84.574219 20.722656 84.53125 20.648438 84.460938 20.625 C 84.238281 20.566406 83.910156 20.496094 83.617188 20.617188 C 83.320312 20.738281 83.152344 21.007812 83.027344 21.210938 C 82.988281 21.273438 83.007812 21.355469 83.070312 21.394531 Z M 86.714844 22.082031 C 86.714844 21.882812 86.589844 21.722656 86.4375 21.722656 C 86.28125 21.722656 86.15625 21.882812 86.15625 22.082031 C 86.15625 22.28125 86.28125 22.445312 86.4375 22.445312 C 86.589844 22.445312 86.714844 22.28125 86.714844 22.082031 Z M 84.144531 22.265625 C 84.296875 22.265625 84.425781 22.101562 84.425781 21.902344 C 84.425781 21.703125 84.296875 21.542969 84.144531 21.542969 C 83.988281 21.542969 83.863281 21.703125 83.863281 21.902344 C 83.863281 22.101562 83.988281 22.265625 84.144531 22.265625 Z M 44.296875 125.035156 C 44.285156 125.027344 44.273438 125.019531 44.261719 125.011719 C 44.1875 124.964844 44.117188 124.914062 44.050781 124.859375 C 44.035156 124.84375 44.015625 124.832031 44 124.816406 C 43.9375 124.765625 43.875 124.707031 43.8125 124.648438 C 43.792969 124.632812 43.773438 124.613281 43.753906 124.589844 C 43.695312 124.535156 43.636719 124.476562 43.582031 124.414062 C 43.558594 124.386719 43.539062 124.363281 43.515625 124.335938 C 42.671875 123.339844 42.121094 121.773438 42.121094 120.003906 C 42.121094 118.667969 42.4375 117.449219 42.957031 116.5 L 50.65625 116.5 C 50.804688 116.5 50.925781 116.378906 50.925781 116.230469 C 50.925781 116.078125 50.804688 115.960938 50.65625 115.960938 L 38.472656 115.960938 C 38.320312 115.960938 38.199219 116.078125 38.199219 116.230469 C 38.199219 116.378906 38.320312 116.5 38.472656 116.5 L 40.675781 116.5 C 40.15625 117.449219 39.839844 118.667969 39.839844 120.003906 C 39.839844 123.023438 41.429688 125.46875 43.394531 125.46875 L 45.671875 125.46875 C 45.273438 125.46875 44.886719 125.363281 44.527344 125.171875 C 44.449219 125.132812 44.371094 125.085938 44.296875 125.035156 Z M 45.878906 125.46875 L 45.878906 125.453125 C 45.8125 125.457031 45.742188 125.46875 45.671875 125.46875 Z M 45.671875 116.882812 C 44.480469 116.882812 43.550781 118.253906 43.550781 120.003906 C 43.550781 121.757812 44.480469 123.125 45.671875 123.125 C 46.863281 123.125 47.796875 121.757812 47.796875 120.003906 C 47.796875 118.253906 46.863281 116.882812 45.671875 116.882812 Z M 90.050781 104.578125 L 81.078125 104.578125 L 81.214844 106.988281 L 68.292969 106.988281 L 69.003906 104.3125 L 60.1875 101.792969 L 59.371094 106.988281 L 51.242188 106.988281 L 51.210938 107.480469 L 59.292969 107.480469 L 57.285156 120.199219 C 51.621094 120.164062 49.621094 122.769531 49.621094 122.769531 L 63.203125 126.046875 L 68.160156 107.480469 L 81.242188 107.480469 L 82.039062 121.425781 C 77.878906 122.003906 77.878906 126.046875 77.878906 126.046875 L 90.050781 126.046875 L 90.050781 107.480469 L 99.515625 107.480469 C 99.519531 107.476562 99.519531 107.476562 99.523438 107.472656 C 99.714844 107.316406 99.898438 107.152344 100.085938 106.988281 L 90.050781 106.988281 Z M 27.34375 125.453125 C 27.277344 125.457031 27.210938 125.46875 27.140625 125.46875 L 27.34375 125.46875 Z M 27.140625 116.882812 C 25.949219 116.882812 25.015625 118.253906 25.015625 120.003906 C 25.015625 121.757812 25.949219 123.125 27.140625 123.125 C 28.332031 123.125 29.265625 121.757812 29.265625 120.003906 C 29.265625 118.253906 28.332031 116.882812 27.140625 116.882812 Z M 94.300781 69.207031 L 99.742188 69.207031 C 99.640625 69.027344 99.542969 68.847656 99.445312 68.664062 L 94.570312 68.664062 L 94.570312 58.175781 C 94.394531 57.84375 94.214844 57.523438 94.03125 57.207031 L 94.03125 68.9375 C 94.03125 69.085938 94.152344 69.207031 94.300781 69.207031 Z M 76.394531 77.863281 L 77.671875 77.863281 L 77.617188 77.324219 L 76.5 77.324219 Z M 108.023438 77.863281 C 107.710938 77.691406 107.40625 77.507812 107.113281 77.324219 L 90.175781 77.324219 C 90.183594 77.503906 90.191406 77.683594 90.199219 77.863281 Z M 64.535156 77.324219 L 53.117188 77.324219 L 53.082031 77.863281 L 64.4375 77.863281 Z M 122.566406 106.988281 L 132.566406 106.988281 C 132.59375 107.152344 132.621094 107.316406 132.644531 107.480469 L 122.980469 107.480469 C 122.84375 107.3125 122.707031 107.152344 122.566406 106.988281 " fill-opacity="1" fill-rule="nonzero"/></g></svg>