<svg id="visual" viewBox="0 0 960 540" width="960" height="540" xmlns="http://www.w3.org/2000/svg" xmlns:xlink="http://www.w3.org/1999/xlink" version="1.1"><g transform="translate(465.91581163750766 289.5196127787816)"><path d="M133.9 -158.7C178.2 -122.4 222 -84.6 237.9 -35.9C253.8 12.9 241.6 72.7 206.9 106.9C172.2 141.2 115 149.9 62.8 166.2C10.5 182.5 -36.6 206.3 -71.4 194.4C-106.1 182.5 -128.4 134.7 -155.5 89.1C-182.5 43.5 -214.4 0.1 -216.5 -46.9C-218.6 -93.8 -190.9 -144.2 -149.9 -181.1C-108.8 -218.1 -54.4 -241.5 -4.8 -235.8C44.8 -230 89.6 -195.1 133.9 -158.7" fill="#06D001"></path></g></svg>